<?xml version="1.0" standalone="no"?>
<!DOCTYPE svg PUBLIC "-//W3C//DTD SVG 20010904//EN"
 "http://www.w3.org/TR/2001/REC-SVG-20010904/DTD/svg10.dtd">
<svg version="1.0" xmlns="http://www.w3.org/2000/svg"
 width="300.000000pt" height="257.000000pt" viewBox="0 0 300.000000 257.000000"
 preserveAspectRatio="xMidYMid meet">
<metadata>
Created by potrace 1.10, written by Peter Selinger 2001-2011
</metadata>
<g transform="translate(0.000000,257.000000) scale(0.100000,-0.100000)"
fill="#000000" stroke="none">
<path d="M1594 2239 c-12 -6 -27 -21 -33 -33 -7 -14 -12 -218 -14 -641 -4
-624 -7 -676 -41 -710 -12 -12 -14 -27 -10 -54 5 -30 -1 -53 -29 -114 -86
-185 -237 -267 -494 -267 -296 1 -435 111 -499 396 -16 69 -19 153 -24 696 -6
684 -1 643 -71 654 -28 5 -41 1 -64 -18 l-28 -24 1 -590 c1 -711 7 -774 98
-960 34 -70 59 -105 107 -151 79 -76 130 -105 242 -139 80 -24 106 -27 235
-26 232 0 372 48 500 168 37 35 70 64 74 64 3 0 6 -19 6 -42 1 -46 12 -68 47
-86 32 -17 57 -15 84 9 21 18 25 31 29 112 l5 92 223 3 223 2 97 -98 c112
-113 153 -134 270 -133 148 0 225 78 149 149 -21 20 -25 20 -85 6 -57 -13 -70
-13 -117 1 -74 21 -112 66 -353 416 -111 162 -222 317 -247 344 -25 28 -44 56
-42 63 1 7 191 193 422 413 231 221 428 413 437 428 16 24 16 29 2 49 -18 27
-73 37 -116 23 -19 -7 -82 -58 -145 -119 -61 -59 -212 -204 -335 -322 -122
-118 -255 -246 -295 -283 -39 -38 -76 -66 -82 -62 -8 4 -11 124 -11 374 0 337
-2 371 -17 390 -21 25 -70 35 -99 20z m76 -464 c0 -239 3 -435 6 -435 3 0 74
67 157 149 84 81 287 277 451 435 l299 286 48 0 c27 0 49 -2 49 -5 0 -2 -39
-42 -87 -88 -49 -46 -238 -227 -422 -403 -184 -175 -355 -337 -380 -360 l-45
-41 31 -16 c52 -27 112 -104 324 -414 112 -164 226 -321 254 -349 81 -81 187
-105 273 -60 27 14 29 14 39 -15 10 -27 9 -31 -14 -46 -37 -24 -168 -30 -229
-9 -59 19 -134 83 -189 160 l-40 56 -262 0 -263 0 0 -115 0 -115 -40 0 -40 0
0 141 0 142 -37 -74 c-99 -200 -292 -300 -578 -300 -211 0 -348 45 -454 150
-93 92 -146 208 -175 386 -13 83 -17 202 -19 698 l-2 597 43 0 42 0 0 -552 c0
-304 5 -596 10 -650 38 -389 200 -550 555 -549 376 0 553 172 604 586 7 56 11
308 11 668 l0 577 40 0 40 0 0 -435z"/>
<path d="M1670 976 l0 -286 235 0 c129 0 235 2 235 5 0 11 -315 462 -344 493
-31 34 -62 54 -103 66 l-23 7 0 -285z m101 177 c59 -62 281 -392 275 -408 -4
-12 -34 -15 -159 -15 -106 0 -157 4 -165 12 -18 18 -17 448 1 448 7 0 29 -17
48 -37z"/>
</g>
</svg>
